<?xml version="1.0" encoding="UTF-8" standalone="no"?>
<svg width="30px" height="30px" viewBox="0 0 30 30" version="1.1" xmlns="http://www.w3.org/2000/svg" xmlns:xlink="http://www.w3.org/1999/xlink">
    <!-- Generator: Sketch 42 (36781) - http://www.bohemiancoding.com/sketch -->
    <title>icon</title>
    <desc>Created with Sketch.</desc>
    <defs></defs>
    <g id="Page-1" stroke="none" stroke-width="1" fill="none" fill-rule="evenodd">
        <g id="icon" fill-rule="nonzero">
            <g id="Page-1">
                <g id="Group-2">
                    <circle id="Oval" fill="#000000" cx="15" cy="15" r="15"></circle>
                    <path d="M11.1698583,10.3154107 C11.0973684,10.5391999 11.0468114,10.695332 10.9691171,10.9358496 C10.8780401,10.0224772 11.0605658,9.24999543 11.4267326,8.52509671 C12.3977252,6.60244225 13.8467791,5.21881504 15.9553051,4.61101535 C16.248982,4.52625796 16.561246,4.49689026 16.8671905,4.46529211 C17.2292681,4.42774608 17.5419039,4.57421279 17.786139,4.82551102 C18.6534153,5.71695058 19.0649347,6.79612032 19.0541542,8.03551126 C19.0530389,8.18532366 18.998021,8.33773827 18.9496944,8.48308976 C17.3047319,13.4685343 15.9144133,18.5223795 14.8828267,23.6713908 C14.789891,24.1349543 14.7185163,24.6037221 14.6605244,25.0728617 C14.6341307,25.2847552 14.5516037,25.3464645 14.3445429,25.3416319 C13.1122151,25.3107772 12.3638966,24.5204517 12.2471693,23.1293896 C12.1546053,22.0256849 12.3746771,20.955437 12.5910315,19.8874195 C13.329313,16.245454 14.3081121,12.6659413 15.3973189,9.11505274 C15.4322628,9.00092766 15.4092147,8.86895892 15.4136756,8.74516852 C15.2802199,8.77156227 15.1307792,8.76896007 15.0177694,8.83141289 C14.8675852,8.9146833 14.7159141,9.02657793 14.617774,9.16412281 C14.1107166,9.87340833 13.592507,10.5778612 13.1389806,11.3206036 C12.9631462,11.6087044 12.9571983,11.9971757 12.853482,12.3332313 C12.7683529,12.6098081 12.6534843,12.8767195 12.5505115,13.1518093 C11.7215248,12.7451225 11.2081478,12.5027461 11.1698583,10.3154107 Z" id="Fill-4" fill="#FFFFFF"></path>
                </g>
            </g>
        </g>
    </g>
</svg>