<?xml version="1.0" encoding="UTF-8" standalone="no"?>
<svg width="176px" height="84px" viewBox="0 0 176 84" version="1.1" xmlns="http://www.w3.org/2000/svg" xmlns:xlink="http://www.w3.org/1999/xlink">
    <!-- Generator: Sketch 42 (36781) - http://www.bohemiancoding.com/sketch -->
    <title>Page 1</title>
    <desc>Created with Sketch.</desc>
    <defs>
        <polygon id="path-1" points="0 83.4422 175.587 83.4422 175.587 0.0002 0 0.0002"></polygon>
    </defs>
    <g id="Page-1" stroke="none" stroke-width="1" fill="none" fill-rule="evenodd">
        <g>
            <g id="Group-3" transform="translate(16.000000, 3.442200)" fill="#000000">
                <path d="M124.9585,21.9398 C126.6045,19.1678 127.3405,16.0998 127.6205,12.8988 C126.7325,15.9128 125.8455,18.9258 124.9585,21.9398 M42.6635,32.3328 C45.5655,32.7678 48.3945,32.4228 50.2915,31.4378 C51.4545,30.8338 52.4065,30.0148 52.8805,28.7518 C53.3265,27.5648 52.9765,25.7668 52.1125,25.1368 C51.0505,24.3628 50.0685,25.0058 49.1945,25.5378 C46.4645,27.2018 44.6045,29.7198 42.6635,32.3328 M98.2195,33.4148 C99.2605,33.4148 100.1365,33.4758 101.0015,33.4028 C103.2015,33.2178 105.2275,32.5648 106.8055,30.9188 C107.5555,30.1358 108.0285,29.2108 108.0015,28.0958 C107.9555,26.1618 106.6795,25.1878 104.8715,25.7978 C101.2545,27.0188 99.5765,29.9558 98.2195,33.4148 M132.9355,39.7378 C132.9015,43.0838 134.7395,44.4968 137.2435,43.6798 C139.0925,43.0758 140.4765,41.7968 141.7455,40.3858 C141.8825,40.2328 141.9335,39.9908 141.9885,39.7808 C142.8535,36.5218 143.7175,33.2618 144.5625,29.9968 C144.6355,29.7198 144.6555,29.3898 144.5775,29.1198 C143.7395,26.2098 141.5345,25.5388 139.2255,27.4768 C139.0345,27.6358 138.8535,27.8078 138.6795,27.9858 C136.3325,30.3958 134.8255,33.3048 133.7655,36.4508 C133.3355,37.7248 133.1015,39.0638 132.9355,39.7378 M64.9205,43.7908 C62.0375,54.2318 59.4285,64.6978 57.8645,75.5528 C59.8025,75.2778 61.2275,74.5528 62.2665,73.0988 L60.5435,74.1708 C64.3435,69.9918 66.7435,65.1678 67.7025,59.6538 C68.6725,54.0748 67.7175,48.7908 64.9205,43.7908 M54.6645,48.4268 C53.8695,48.8938 53.1995,49.3368 52.4885,49.6968 C48.9505,51.4898 45.0565,50.6028 42.6255,47.4468 C40.8575,45.1518 40.1635,42.4638 39.8585,39.6468 C39.7755,38.8818 39.7435,38.1128 39.6765,37.1858 C39.4675,37.4958 39.3375,37.6868 39.2105,37.8778 C36.8155,41.4898 36.0955,45.5718 35.8585,49.7928 C35.7735,51.3038 35.7455,51.3518 34.2435,51.0368 C31.4895,50.4598 29.4625,48.9638 28.4425,46.2068 C27.7825,46.7338 27.1365,47.2928 26.4495,47.7928 C24.5425,49.1818 22.4915,50.2588 20.0795,50.3808 C17.0425,50.5338 15.2965,49.0078 14.9565,45.9738 C14.9255,45.7028 14.9105,45.4318 14.7805,45.1678 L14.7805,48.1258 C14.1985,47.3708 13.8435,46.4868 13.9645,45.5498 C14.3065,42.8908 14.6715,40.2308 15.1695,37.5988 C15.6075,35.2908 16.2385,33.0188 16.7825,30.7318 C16.8245,30.5538 16.8555,30.3748 16.7715,30.1238 C16.0805,30.9798 15.3615,31.8148 14.7015,32.6948 C10.7425,37.9708 7.9645,43.7998 6.5855,50.2648 C6.4245,51.0188 6.1165,51.2538 5.3535,51.1878 C1.6365,50.8638 -0.3335,48.5528 0.0515,44.5958 C0.3205,41.8198 0.6825,39.0258 1.3395,36.3208 C2.4555,31.7308 3.8225,27.1998 5.1225,22.6538 C5.3405,21.8908 5.7605,21.1858 6.0715,20.4468 C6.3525,19.7818 6.8095,19.5908 7.5275,19.7058 C10.8235,20.2308 12.9365,23.2878 12.1365,26.6458 C11.7535,28.2508 11.0595,29.7798 10.5235,31.3498 C10.1955,32.3128 9.9005,33.2858 9.7265,34.3228 C10.0935,33.7888 10.4655,33.2588 10.8265,32.7208 C13.0635,29.3878 15.2695,26.0338 17.5495,22.7308 C18.3155,21.6208 19.2495,20.6218 20.1405,19.6028 C20.8765,18.7618 21.8065,18.6368 22.8665,18.9218 C26.3855,19.8668 28.1405,23.3198 27.0445,26.7928 C25.7065,31.0358 24.5325,35.3318 23.3405,39.6198 C23.1535,40.2928 23.1655,41.0528 23.2315,41.7578 C23.3375,42.8818 24.1595,43.4148 25.0935,42.8278 C26.2455,42.1038 27.3475,41.2168 28.2505,40.2028 C29.6805,38.5968 30.2285,36.5498 30.7305,34.4798 C33.1235,24.6308 35.9695,14.9188 39.6805,5.4748 C39.9225,4.8568 40.1555,4.2698 40.8115,3.9188 C41.0775,3.7768 41.2155,3.3688 41.3715,3.0608 C41.4685,2.8678 41.4725,2.6298 41.5495,2.4238 C41.9805,1.2838 42.2505,1.1518 43.4245,1.4878 C46.8715,2.4768 48.4775,6.0348 47.1005,9.5388 C45.5725,13.4258 44.0865,17.3308 42.5865,21.2298 C42.4695,21.5338 42.3845,21.8508 42.3025,22.1078 C43.7255,21.4198 45.1265,20.6828 46.5745,20.0538 C51.0875,18.0938 55.5075,20.4358 56.2975,25.8588 C57.1025,31.3828 54.2375,35.8818 48.8595,37.5048 C48.1345,37.7238 47.8995,38.0598 48.0545,38.7198 C48.3675,40.0578 48.5565,41.4558 49.0855,42.7068 C49.8165,44.4328 51.2165,44.8198 52.9375,44.0408 C53.0385,43.9958 53.1365,43.9448 53.2345,43.8938 C56.8015,41.9758 56.1005,42.4278 56.9925,39.1468 C57.0635,38.8818 57.1465,38.6208 57.2335,38.3288 C57.6915,38.3498 58.1255,38.3688 58.5575,38.3888 C58.5725,38.3518 58.5875,38.3138 58.6025,38.2758 C58.2105,38.0658 57.8015,37.8848 57.4335,37.6418 C56.8095,37.2278 56.3045,36.6998 56.4005,35.8778 C56.4945,35.0848 57.1285,34.7818 57.7545,34.4388 C58.0605,34.2718 58.3705,33.9138 58.4635,33.5818 C60.9025,24.8968 63.4025,16.2298 66.6365,7.7978 C67.3965,5.8148 68.3065,3.8788 69.2765,1.9868 C70.0305,0.5198 70.4855,0.4368 72.0325,0.9978 C75.1985,2.1458 76.6775,5.5798 75.5695,8.9008 C73.0135,16.5628 70.5245,24.2468 68.0115,31.9228 C67.9105,32.2338 67.8375,32.5558 67.6885,33.0988 C68.0775,32.8268 68.3095,32.6738 68.5295,32.5078 C72.0645,29.8448 75.1435,26.7048 78.0625,23.3958 C78.8305,22.5228 79.6455,21.6928 80.4295,20.8328 C81.1225,20.0698 81.9375,19.9308 82.9155,20.1978 C86.3355,21.1308 88.0705,24.6958 86.8935,28.1838 C85.4245,32.5318 84.0465,36.9098 82.6715,41.2888 C82.4265,42.0698 82.3075,42.9128 82.2715,43.7338 C82.2335,44.6298 82.7335,45.0198 83.5485,44.6678 C84.3945,44.3028 85.2375,43.8118 85.9125,43.1908 C87.9265,41.3428 89.0405,38.9238 89.8875,36.3798 C91.4095,31.8028 93.6385,27.6398 96.9805,24.1228 C97.2295,23.8618 97.6065,23.7218 97.9345,23.5418 C98.0525,23.4758 98.2205,23.4868 98.3235,23.4088 C99.1555,22.7838 100.1245,22.2668 100.7665,21.4828 C101.6535,20.3968 102.8075,20.1988 104.0035,20.1378 C107.7025,19.9508 110.3425,22.1438 111.1345,25.9588 C112.5195,32.6298 107.7295,38.7728 100.9125,39.0388 C99.6415,39.0888 98.3655,39.0528 97.0925,39.0248 C96.6535,39.0158 96.4555,39.1488 96.3745,39.6008 C95.8325,42.6178 97.9715,44.8508 100.9885,44.2978 C101.9495,44.1218 102.9175,43.7618 103.7775,43.2948 C106.5245,41.8028 108.8995,39.7958 111.0745,37.5738 C112.4265,36.1928 113.2925,34.4878 113.8245,32.6118 C116.2555,24.0408 118.6765,15.4648 121.7785,7.1038 C122.3735,5.4998 123.1425,3.9608 123.8455,2.3978 C124.1805,1.6528 124.7375,1.4108 125.5805,1.4778 C129.1105,1.7588 131.8025,4.3028 132.5905,8.1958 C133.2715,11.5578 132.7265,14.8138 131.6765,18.0058 C129.7035,24.0048 126.2045,29.0928 122.1135,33.8148 C121.3285,34.7198 120.5135,35.5988 119.5615,36.6578 C120.2175,36.3508 120.6785,36.1338 121.2765,35.8538 C120.8505,37.6268 120.4345,39.2758 120.0625,40.9358 C119.8825,41.7418 119.7145,42.5648 119.6705,43.3868 C119.6225,44.2768 119.9765,44.5368 120.8515,44.3768 C122.2375,44.1218 123.2395,43.2628 124.0995,42.2138 C125.5065,40.4958 126.3725,38.4908 127.1085,36.4228 C128.4555,32.6428 130.1715,29.0618 132.7975,25.9828 C134.4525,24.0418 136.3525,22.4078 138.8075,21.5468 C141.9305,20.4528 144.2265,21.1738 146.2005,23.9368 C146.3335,23.4828 146.4375,23.1068 146.5535,22.7328 C148.3805,16.8128 150.1975,10.8898 152.0495,4.9768 C152.3125,4.1368 152.6885,3.3198 153.1145,2.5488 C153.3545,2.1138 153.8035,1.7948 154.0185,1.5708 C154.4865,1.5708 154.8155,1.5648 155.1455,1.5728 C155.3295,1.5768 155.5245,1.5658 155.6965,1.6198 C157.7505,2.2668 158.9475,3.8218 158.8485,5.9678 C158.7955,7.1148 158.5545,8.2728 158.2425,9.3838 C155.1705,20.3608 152.0645,31.3288 148.9715,42.2998 C148.9125,42.5078 148.8845,42.7248 148.7995,43.1488 C149.2765,43.0598 149.7485,43.1098 149.9955,42.8988 C150.8475,42.1738 151.7755,41.4618 152.3925,40.5528 C153.9895,38.1928 154.9575,35.5408 155.5615,32.7548 C155.6705,32.2478 155.5695,31.5708 156.2955,31.4068 C157.0575,31.2348 157.5485,31.6498 157.9475,32.2428 C159.0785,33.9208 159.1845,35.7518 158.7685,37.6608 C158.6875,38.0348 158.5845,38.4038 158.6505,38.8648 C158.8945,38.4758 159.1375,38.0858 159.3805,37.6968 C159.4495,37.7228 159.5185,37.7478 159.5865,37.7728 C159.3075,38.7288 159.1155,39.7228 158.7295,40.6328 C157.3105,43.9878 155.0005,46.6398 152.0055,48.6778 C147.7815,51.5528 144.3305,50.7838 141.6315,46.3998 C141.1265,46.8308 140.6435,47.2798 140.1215,47.6818 C138.3585,49.0358 136.4325,50.0278 134.1775,50.2328 C131.1945,50.5028 129.0415,49.2398 127.6355,46.6388 C127.4255,46.2498 127.2535,45.8418 127.0245,45.3598 C126.6155,45.8058 126.2415,46.2288 125.8505,46.6348 C124.1635,48.3788 122.2325,49.7058 119.8285,50.2798 C115.5025,51.3138 110.7815,48.5718 111.4865,43.1298 C111.1725,43.4058 110.9595,43.5848 110.7555,43.7738 C107.9455,46.3718 104.9075,48.6058 101.2055,49.7838 C99.4385,50.3468 97.6255,50.5838 95.7935,50.3078 C92.7565,49.8478 90.4005,48.4018 89.2515,45.4818 C88.8015,45.8778 88.3385,46.2588 87.9025,46.6688 C85.8885,48.5668 83.6325,50.0148 80.8365,50.4338 C80.3195,50.5118 79.7895,50.5098 79.2655,50.5138 C78.5325,50.5188 77.8615,50.4048 77.8125,49.4758 C76.5515,49.5688 75.1255,48.6568 74.6235,47.4638 C73.9145,45.7798 74.0065,44.0198 74.3555,42.3098 C75.0405,38.9498 75.8625,35.6178 76.6265,32.2748 C76.6855,32.0228 76.7415,31.7708 76.8425,31.3238 C73.7265,33.9358 70.5585,36.0988 67.1615,37.9218 C66.5485,38.2498 66.7565,38.6048 67.0035,39.0738 C68.2495,41.4448 69.7615,43.7298 70.6285,46.2358 C74.6525,57.8768 71.9685,68.0628 63.5165,76.8448 C62.8315,77.5558 61.9905,78.1248 61.1905,78.7158 C58.0485,81.0368 54.8285,79.8128 52.9495,78.1778 C50.8625,76.3618 49.9345,74.0208 50.2745,71.2718 C51.2075,63.7328 52.8645,56.3318 54.5555,48.9388 C54.5845,48.8078 54.6115,48.6748 54.6645,48.4268" id="Fill-1"></path>
            </g>
            <path d="M4.3164,23.383 C2.0864,22.289 0.7054,21.637 0.6024,15.753 C0.4074,16.355 0.2714,16.775 0.0624,17.422 C-0.1826,14.965 0.3084,12.887 1.2934,10.937 C3.9054,5.765 7.8034,2.043 13.4754,0.408 C14.2654,0.18 15.1054,0.101 15.9284,0.016 C16.9024,-0.085 17.7434,0.309 18.4004,0.985 C20.7334,3.383 21.8404,6.286 21.8114,9.62 C21.8084,10.023 21.6604,10.433 21.5304,10.824 C17.1054,24.235 13.3654,37.83 10.5904,51.681 C10.3404,52.928 10.1484,54.189 9.9924,55.451 C9.9214,56.021 9.6994,56.187 9.1424,56.174 C5.8274,56.091 3.8144,53.965 3.5004,50.223 C3.2514,47.254 3.8434,44.375 4.4254,41.502 C6.4114,31.705 9.0444,22.076 11.9744,12.524 C12.0684,12.217 12.0064,11.862 12.0184,11.529 C11.6594,11.6 11.2574,11.593 10.9534,11.761 C10.5494,11.985 10.1414,12.286 9.8774,12.656 C8.5134,14.564 7.1194,16.459 5.8994,18.457 C5.4264,19.232 5.4104,20.277 5.1314,21.181 C4.9024,21.925 4.5934,22.643 4.3164,23.383" id="Fill-4" fill="#000000"></path>
            <path d="M104.0942,22.9328 C103.5812,21.8768 103.5812,21.8768 102.7952,22.3908 C101.1132,21.4638 100.0322,19.3178 100.2962,17.4398 C100.5902,15.3498 101.3172,13.4348 102.5652,11.7228 C102.7012,11.5358 102.7242,11.2698 102.8442,11.0668 C102.9902,10.8208 103.1392,10.4748 103.3652,10.3938 C106.1962,9.3748 108.2532,10.0218 110.1772,12.9548 C110.7762,13.8678 110.5372,14.4148 109.8792,15.2628 C108.3232,17.2638 106.8582,19.3348 105.3452,21.3708 C104.9652,21.8828 104.5482,22.3678 104.0942,22.9328" id="Fill-6" fill="#000000"></path>
            <path d="M173.9731,34.0988 C173.5081,33.7748 173.1111,33.4418 173.5041,32.8748 C173.5651,32.7868 173.9511,32.7948 174.0621,32.8958 C174.5211,33.3158 174.3111,33.7168 173.9731,34.0988" id="Fill-8" fill="#000000"></path>
            <path d="M5.3916,22.6749 C5.4426,22.9259 5.5196,23.0859 5.4946,23.2269 C5.4356,23.5579 5.3286,23.8799 5.2406,24.2059 C5.1236,24.1599 4.9036,24.1039 4.9066,24.0699 C4.9456,23.6719 5.0116,23.2749 5.0906,22.8829 C5.1006,22.8269 5.2156,22.7919 5.3916,22.6749" id="Fill-10" fill="#000000"></path>
            <path d="M4.2519,26.6832 C4.7119,26.8772 5.1319,27.0542 5.5509,27.2312 C4.6209,27.6502 4.2159,27.4482 4.2519,26.6832" id="Fill-12" fill="#000000"></path>
            <polygon id="Fill-14" fill="#000000" points="106.396 67.4235 108.386 67.4235 110.593 70.9735 112.8 67.4235 114.791 67.4235 114.791 75.8195 112.956 75.8195 112.956 70.3375 110.593 73.9245 110.545 73.9245 108.207 70.3735 108.207 75.8195 106.396 75.8195"></polygon>
            <polygon id="Fill-16" fill="#000000" points="120.4116 67.4235 126.7436 67.4235 126.7436 69.0675 122.2466 69.0675 122.2466 70.7705 126.2036 70.7705 126.2036 72.4125 122.2466 72.4125 122.2466 74.1755 126.8046 74.1755 126.8046 75.8195 120.4116 75.8195"></polygon>
            <path d="M135.3256,74.152 C136.8376,74.152 137.8566,73.132 137.8566,71.645 L137.8566,71.622 C137.8566,70.134 136.8376,69.09 135.3256,69.09 L133.8986,69.09 L133.8986,74.152 L135.3256,74.152 Z M132.0526,67.423 L135.3256,67.423 C137.9646,67.423 139.7876,69.235 139.7876,71.597 L139.7876,71.622 C139.7876,73.984 137.9646,75.819 135.3256,75.819 L132.0526,75.819 L132.0526,67.423 Z" id="Fill-18" fill="#000000"></path>
            <mask id="mask-2" fill="white">
                <use xlink:href="#path-1"></use>
            </mask>
            <g id="Clip-21"></g>
            <polygon id="Fill-20" fill="#000000" mask="url(#mask-2)" points="145.12 75.8192 146.967 75.8192 146.967 67.4232 145.12 67.4232"></polygon>
            <path d="M157.4887,72.3053 L156.3737,69.5823 L155.2577,72.3053 L157.4887,72.3053 Z M155.5457,67.3643 L157.2487,67.3643 L160.8457,75.8193 L158.9157,75.8193 L158.1477,73.9363 L154.5977,73.9363 L153.8307,75.8193 L151.9477,75.8193 L155.5457,67.3643 Z" id="Fill-22" fill="#000000" mask="url(#mask-2)"></path>
        </g>
    </g>
</svg>