<?xml version="1.0" encoding="UTF-8" standalone="no"?>
<svg width="415px" height="194px" viewBox="0 0 415 194" version="1.1" xmlns="http://www.w3.org/2000/svg" xmlns:xlink="http://www.w3.org/1999/xlink">
    <!-- Generator: Sketch 42 (36781) - http://www.bohemiancoding.com/sketch -->
    <title>Page 1</title>
    <desc>Created with Sketch.</desc>
    <defs>
        <polygon id="path-1" points="370.9101 185 0.169073848 185 0.169073848 0.7797 370.9101 0.7797"></polygon>
        <polygon id="path-3" points="0.826 0.55048025 0.826 1.55048025 0.1502 1.55048025 0.1502 0.55048025 0.826 0.55048025"></polygon>
        <polygon id="path-5" points="0.826 0.196286624 0.826 1.19628662 0.5683 1.19628662 0.5683 0.196286624 0.826 0.196286624"></polygon>
        <polygon id="path-7" points="0 193.799 414.826 193.799 414.826 0 0 0"></polygon>
    </defs>
    <g id="Page-1" stroke="none" stroke-width="1" fill="none" fill-rule="evenodd">
        <g>
            <path d="M182.0962,178.3373 C182.0832,178.3583 182.0622,178.3863 182.0402,178.3903 C181.8412,178.4303 181.6432,178.4853 181.4432,178.4963 C181.2472,178.5073 181.1672,178.3553 181.2452,178.1713 C181.3292,177.9763 181.3982,177.9233 181.5832,177.9253 C181.6502,177.9073 181.7162,177.8933 181.7812,177.8733 C181.9352,177.8253 182.0542,177.8943 182.1432,178.0043 C182.2382,178.1213 182.1592,178.2333 182.0962,178.3373 Z" id="Fill-1" fill="#221F20"></path>
            <path d="M180.9683,179.766 C180.8693,179.777 180.7853,179.897 180.7933,180.017 C180.8013,180.138 180.9003,180.237 181.0053,180.23 C181.1143,180.223 181.1973,180.117 181.1893,179.992 C181.1813,179.864 181.0753,179.755 180.9683,179.766" id="Fill-3" fill="#221F20"></path>
            <path d="M180.3208,177.3617 C180.3388,177.2927 180.0888,177.1187 180.0128,177.1547 C179.9698,177.1747 179.9428,177.2627 179.9398,177.3227 C179.9328,177.4417 180.0498,177.5447 180.2028,177.5607 C180.2438,177.4957 180.3028,177.4337 180.3208,177.3617" id="Fill-5" fill="#221F20"></path>
            <path d="M182.1538,178.7504 C182.0428,178.7644 182.0078,178.8604 182.0148,178.9664 C182.0248,179.0694 182.0628,179.1584 182.1848,179.1524 C182.3148,179.1454 182.3438,179.0514 182.3408,178.9394 C182.3268,178.8274 182.2758,178.7344 182.1538,178.7504" id="Fill-7" fill="#221F20"></path>
            <path d="M180.269,180.1176 C180.212,180.1706 180.156,180.2236 180.055,180.3176 C180.167,180.3886 180.227,180.4546 180.291,180.4596 C180.397,180.4686 180.444,180.3706 180.417,180.2856 C180.398,180.2206 180.321,180.1726 180.269,180.1176" id="Fill-9" fill="#221F20"></path>
            <path d="M178.1655,178.4526 C178.1735,178.5136 178.2585,178.5636 178.3105,178.6186 C178.3595,178.5696 178.4095,178.5206 178.4935,178.4406 C178.3995,178.3676 178.3405,178.3216 178.2805,178.2756 C178.2395,178.3356 178.1595,178.3986 178.1655,178.4526" id="Fill-11" fill="#221F20"></path>
            <path d="M179.2104,177.3686 C179.2494,177.3956 179.2914,177.4476 179.3284,177.4446 C179.3714,177.4406 179.4104,177.3896 179.4854,177.3316 C179.3994,177.2896 179.3474,177.2426 179.3084,177.2526 C179.2694,177.2626 179.2424,177.3276 179.2104,177.3686" id="Fill-13" fill="#221F20"></path>
            <path d="M182.9302,180.6098 C182.8612,180.5718 182.8142,180.5238 182.7792,180.5318 C182.7432,180.5398 182.7182,180.6018 182.6902,180.6398 C182.7302,180.6638 182.7712,180.7048 182.8122,180.7058 C182.8422,180.7068 182.8742,180.6568 182.9302,180.6098" id="Fill-15" fill="#221F20"></path>
            <g id="Group-19" transform="translate(41.000000, 8.799000)">
                <mask id="mask-2" fill="white">
                    <use xlink:href="#path-1"></use>
                </mask>
                <g id="Clip-18"></g>
                <path d="M329.9331,92.7747 C318.9691,105.0887 310.4531,102.0597 309.2461,95.3617 C307.5261,85.8107 320.0321,60.3507 329.5191,60.3507 C333.3861,60.3507 335.4561,63.8377 336.5681,67.6707 C334.2171,76.4247 331.9551,85.0397 329.9331,92.7747 M143.4841,168.0987 C143.4661,168.0657 143.4651,168.0207 143.4391,167.9977 C143.3021,167.8777 143.1061,167.8977 142.9561,168.0487 C142.8321,168.1747 142.7531,168.3197 142.7741,168.4667 C142.7791,168.6227 142.8391,168.7137 142.9271,168.7457 C141.8381,169.9737 140.7811,171.0397 139.7921,171.9217 C140.9411,171.4467 141.9101,170.9007 142.8101,170.2797 C142.8311,170.2857 142.8451,170.2997 142.8721,170.2987 C142.9661,170.2957 143.0331,170.2077 143.0371,170.1147 C143.6601,169.6707 144.2561,169.1897 144.8551,168.6707 C144.8571,168.6927 144.8581,168.7147 144.8591,168.7387 L144.8521,168.7387 C144.8651,168.8387 144.8711,168.9397 144.8931,169.0377 C144.9151,169.1407 144.9761,169.1747 145.0811,169.1197 C145.1541,169.0817 145.2341,169.0517 145.3141,169.0397 C145.6001,168.9957 145.6461,168.7657 145.7151,168.5467 C145.7691,168.3737 145.6481,168.2877 145.5461,168.2037 C145.5131,168.1767 145.4741,168.1737 145.4391,168.1567 C145.9531,167.6947 146.4761,167.2087 147.0381,166.6877 C146.3591,168.0287 145.4451,169.2097 144.3801,170.2497 C144.3801,170.2477 144.3831,170.2457 144.3821,170.2437 C144.3741,170.1067 144.2731,170.0037 144.1511,170.0087 C144.0311,170.0137 143.9341,170.1317 143.9391,170.2637 C143.9451,170.3817 144.0381,170.4717 144.1441,170.4857 C143.1181,171.4447 141.9501,172.2627 140.6721,172.9287 C140.5661,172.8647 140.4981,172.7947 140.4521,172.8057 C140.3971,172.8187 140.3231,172.9117 140.3281,172.9627 C140.3301,172.9947 140.3661,173.0307 140.4051,173.0587 C139.0151,173.7537 137.5191,174.2887 135.9451,174.6127 C135.7531,174.6907 135.5791,174.7247 135.4231,174.7177 L135.3971,174.7237 L135.3971,174.7137 C134.9451,174.6787 134.6751,174.2977 134.7551,173.6697 C136.7981,157.7847 142.7531,130.5857 150.2971,101.8317 C150.6341,100.5457 151.3761,100.4757 151.9701,101.6647 C166.1671,130.1687 153.6871,156.1767 143.4841,168.0987 M99.1711,74.3927 C106.1931,64.4337 113.8911,56.7467 119.5501,56.7467 C121.4561,56.7467 123.5291,59.4747 123.5241,63.6237 C123.5171,68.4477 117.3201,76.5267 99.1711,74.3927 M247.2631,58.4977 C249.0701,58.4977 251.2431,61.8477 251.2391,64.5617 C251.2301,71.6507 241.7291,78.2757 228.4641,76.6947 C233.6901,61.9197 242.7501,58.4977 247.2631,58.4977 M294.8511,35.4847 C295.2991,34.1787 295.6871,32.8607 296.0281,31.6007 C296.5011,30.0527 296.9741,28.5347 297.4421,27.0497 C296.9661,33.0357 294.5091,45.0807 290.1621,51.7467 C291.7191,46.1557 293.2931,40.6827 294.8511,35.4847 M368.7961,88.0777 C370.3341,83.0197 370.1961,76.4207 365.6941,72.3397 C365.2191,72.1707 364.7071,72.0737 364.1511,72.0657 C363.4391,72.0567 362.3291,72.0367 362.0191,73.9607 C360.7101,82.0957 355.8111,93.1027 351.6941,96.9317 C349.9081,98.5937 347.1191,100.3107 345.9921,98.9617 C353.5401,69.1267 362.2101,40.7917 368.2331,20.1057 C370.8741,11.0377 369.2461,6.1237 362.9241,3.2637 C362.2991,2.9817 361.6601,2.7567 361.0131,2.5817 C360.8961,2.6757 360.7881,2.7787 360.7381,2.9367 C360.6971,3.0687 360.6131,3.0797 360.5091,2.9947 C360.4881,2.9767 360.4411,2.9627 360.4221,2.9747 C360.3141,3.0397 360.1881,3.0867 360.1601,3.2387 C360.1531,3.2777 360.1061,3.3087 360.0781,3.3437 C360.0521,3.3107 360.0141,3.2817 360.0001,3.2447 C359.9411,3.0777 359.8891,3.0427 359.7261,3.1157 C359.6091,3.1687 359.5621,3.1207 359.5201,3.0287 C359.4531,2.8787 359.3901,2.8377 359.2291,2.8567 C359.0991,2.8717 358.9821,2.8687 358.8841,2.7597 C358.8461,2.7187 358.7781,2.7037 358.7201,2.6827 C358.6341,2.6527 358.6101,2.6047 358.6451,2.5157 C358.6811,2.4227 358.7081,2.3267 358.7371,2.2307 C358.6451,2.2287 358.5551,2.2137 358.4631,2.2137 C358.4501,2.2137 358.4331,2.2217 358.4191,2.2227 C358.2921,2.6447 358.1651,3.0677 358.0381,3.4907 C357.9891,3.6587 357.8761,3.8077 357.7921,3.9647 C357.7061,3.9697 357.6211,3.9747 357.5371,3.9797 C357.4641,3.7107 357.2881,3.4197 357.3381,3.1747 C357.3541,3.0987 357.3721,3.0237 357.3881,2.9477 C353.7511,7.2847 346.7871,30.3757 339.9601,55.1817 C337.7681,50.5697 334.0921,48.1787 328.6461,48.1787 C318.5671,48.1787 304.5421,58.4977 295.6771,83.7037 C290.0011,99.8417 283.3351,102.4237 279.7401,102.4237 C277.1701,102.4237 278.5901,96.6257 279.2041,94.0637 C280.1021,90.3207 281.0591,86.4177 282.0601,82.4197 L277.3691,84.8137 L277.3741,84.8057 C278.2631,83.8997 279.1261,82.9967 279.9721,82.0937 C280.0241,82.1317 280.0681,82.1617 280.1081,82.1657 C280.2131,82.1727 280.2601,82.0767 280.2341,81.9907 C280.2231,81.9547 280.1941,81.9227 280.1611,81.8927 C280.7201,81.2957 281.2731,80.6997 281.8141,80.1047 C281.8281,80.1017 281.8411,80.0977 281.8571,80.0957 C281.8781,80.0907 281.9001,80.0647 281.9121,80.0437 C281.9371,80.0037 281.9591,79.9627 281.9781,79.9217 C319.9121,38.1077 313.3301,2.5667 290.1711,2.5587 L290.1631,2.5587 C286.1321,2.5587 273.8571,42.3557 264.4641,75.9377 C263.4311,79.6367 260.3031,84.8147 257.4941,87.4357 C252.9331,91.6917 246.7621,97.0477 240.5871,100.2687 C230.7891,105.3777 221.8391,100.5027 224.4231,89.7617 C224.4231,89.7617 229.5471,89.8757 233.3041,89.8757 C246.1601,89.8757 258.9721,80.4727 258.9941,64.5617 C259.0011,58.1017 255.8141,45.8977 242.6221,45.8977 C240.2451,45.8977 237.8041,46.5457 235.3691,47.7197 C235.3571,47.7997 235.3391,47.8827 235.2961,47.9767 C234.8161,49.0057 234.0401,49.7437 232.9971,50.2017 C231.5681,50.8287 230.3101,51.6497 229.4651,53.0327 C229.2631,53.3627 228.7981,53.5777 228.4081,53.7327 C228.0251,53.8857 227.5761,53.8667 227.1711,53.9807 C227.0071,54.0267 226.8471,54.0487 226.6911,54.0547 C219.3571,61.1997 212.8761,72.1137 209.3531,83.0007 C204.2211,98.8537 196.1641,103.2417 193.0311,103.2417 C190.1261,103.2417 191.5241,97.5607 192.4351,94.2417 C195.3981,83.4597 197.2771,76.3747 201.9081,64.9347 C205.0171,57.2547 201.1931,48.6177 193.2611,46.2427 C192.1941,45.9217 191.1301,45.7397 190.1021,45.7397 C189.9941,45.7397 189.8801,45.7637 189.7661,45.8007 C185.6101,46.8487 176.5071,62.4127 157.3111,76.2967 C163.2511,55.6127 169.6601,35.6067 175.6771,19.8857 C178.6761,12.0527 174.5951,3.4207 166.5251,1.1647 C165.6321,0.9157 164.7901,0.7797 164.0331,0.7797 C159.5911,0.7797 146.9021,37.4997 135.6241,78.9207 C133.2241,79.4147 131.4671,80.7127 131.2161,82.4567 C130.8641,84.9087 133.6101,87.3567 137.4611,88.1437 C137.0341,88.2307 136.5881,88.2937 136.1291,88.3267 C135.0721,88.4007 134.0661,88.3107 133.1671,88.0947 C132.5341,90.5087 131.9061,92.9317 131.2871,95.3557 C130.5711,98.1647 126.8531,99.4367 124.3571,100.9107 C122.7641,101.8507 121.1301,102.3847 119.3771,102.3847 C113.8321,102.3847 111.5421,93.0717 111.7611,86.8177 C128.4861,82.8407 131.3081,69.1637 131.3141,64.0657 C131.3291,52.7387 125.7341,44.1467 114.9101,44.1467 C111.1601,44.1467 101.4601,48.1347 98.0031,51.5257 C100.9541,42.7887 106.2881,28.9677 109.5401,21.2857 C112.9741,13.1677 108.8431,4.4297 100.2671,2.4237 C99.6051,2.2687 98.9491,2.1887 98.3031,2.1597 C98.2281,2.2737 98.1641,2.3917 98.0781,2.5037 C97.1141,3.7297 96.3931,5.0477 96.3001,6.6667 C96.2791,7.0517 95.9701,7.4617 95.7011,7.7827 C95.4351,8.0987 95.0301,8.2947 94.7271,8.5857 C94.4021,8.8987 94.0561,9.0937 93.5771,9.0577 C87.2301,23.4077 76.5481,57.2007 70.6791,82.9147 C69.8531,86.5367 67.0731,91.6827 64.4381,94.3037 C64.1651,94.5757 63.8941,94.8427 63.6211,95.1067 C56.3711,102.1277 52.2491,99.8067 54.5141,89.9757 C57.2031,78.3057 59.3481,71.0307 63.0121,60.9517 C65.2591,54.7677 62.3081,47.2787 56.4131,44.3717 C54.4491,43.4017 52.4161,42.7677 50.5021,42.7677 C45.4721,42.7677 35.9271,59.7117 21.9901,80.0867 C23.5901,74.4367 25.4101,69.0267 27.4251,64.1067 C30.7261,56.0497 27.1021,47.1417 18.6261,45.1827 C17.8391,45.0007 15.6841,44.5937 15.1991,45.1827 C10.5531,50.8267 0.1871,90.4357 0.1691,104.0597 C0.1561,113.4347 4.9901,117.8607 13.9801,118.0837 C14.4701,118.0957 14.9511,117.6987 15.0461,117.2177 C18.8131,98.4207 28.2961,81.0717 39.7111,68.4507 C35.2381,85.3787 32.5471,99.1367 32.5391,104.9847 C32.5361,107.4087 33.3631,109.6837 34.8451,111.5507 C34.0131,108.1807 33.8471,106.8167 34.8491,101.3467 C34.2361,110.3087 37.5851,114.6597 42.6651,116.0057 C48.8541,117.1087 57.3191,114.7317 66.4511,106.0787 C66.5111,110.3397 73.4011,117.9237 82.5721,118.0157 C82.8781,118.0187 83.1571,117.7537 83.1851,117.4477 C84.0791,107.9557 84.2361,105.1427 85.9021,97.8247 C87.7281,93.6647 89.9871,89.2347 92.4961,84.8807 C92.3201,101.6507 99.1201,116.7957 114.4521,116.7957 C118.7361,116.7957 124.0421,113.9217 127.3541,111.2517 C122.6901,130.7867 118.4531,152.2987 116.9721,164.6357 C115.7351,174.9627 123.2071,184.3857 133.5891,184.9677 C133.9701,184.9897 134.3501,185.0007 134.7261,185.0007 C148.1041,185.0007 189.4831,139.4417 155.3291,89.1707 C154.9311,88.5837 155.1171,87.8297 155.7441,87.4927 C165.4701,82.2737 172.8741,76.8377 178.9331,71.7017 C174.7381,87.8797 172.4991,96.1347 172.4901,103.4137 C172.4851,107.1467 173.5501,110.1207 175.3601,112.2927 C175.4741,112.3047 175.5891,112.3167 175.7041,112.3197 C176.7471,112.3477 177.4191,112.9057 178.0411,113.6717 C178.7831,114.5857 179.1091,114.5967 180.1191,113.9877 C180.5661,113.7167 181.2471,113.9957 181.2241,114.5437 C181.1851,115.4517 181.5591,115.9227 182.1391,116.2097 C189.3411,117.6867 199.3161,113.9827 207.5631,104.1907 C210.0391,114.7727 230.9041,127.2197 259.5171,98.9417 C255.8441,115.1277 278.3971,125.9767 295.4391,104.2687 C301.6751,121.5967 319.2421,117.2547 329.4121,106.6997 C331.5931,111.6587 336.9601,116.1857 342.9851,116.1857 C353.5971,116.1857 370.5191,99.1097 370.9101,85.9847 C370.5561,86.8087 370.1381,87.6297 369.6521,88.4417 C368.4821,90.3947 368.1341,90.2547 368.7961,88.0777" id="Fill-17" fill="#221F20" mask="url(#mask-2)"></path>
            </g>
            <path d="M411.5337,81.1811 C411.6947,81.2071 411.8287,81.1361 411.8527,81.0101 C411.8767,80.8841 411.7747,80.7681 411.6147,80.7431 C411.4547,80.7161 411.3247,80.7921 411.3047,80.9231 C411.2867,81.0511 411.3807,81.1561 411.5337,81.1811" id="Fill-20" fill="#221F20"></path>
            <path d="M405.3999,80.3237 C405.5859,80.3447 405.6599,80.3107 405.6789,80.1967 C405.6949,80.1077 405.4949,79.8817 405.3879,79.8747 C405.2459,79.8667 405.1969,79.9727 405.1729,80.0827 C405.1439,80.2177 405.2329,80.3027 405.3999,80.3237" id="Fill-22" fill="#221F20"></path>
            <path d="M405.1265,76.3754 C405.0615,76.3634 404.9785,76.4364 404.9035,76.4724 C404.8995,76.4984 404.8975,76.5244 404.8945,76.5514 C404.9575,76.6044 405.0155,76.6874 405.0875,76.7034 C405.1835,76.7264 405.2905,76.6634 405.2765,76.5534 C405.2705,76.4854 405.1885,76.3874 405.1265,76.3754" id="Fill-24" fill="#221F20"></path>
            <path d="M406.0474,79.9164 C406.0414,79.9754 406.1204,80.0424 406.1624,80.1054 C406.2304,80.0594 406.3334,80.0234 406.3524,79.9624 C406.3684,79.9034 406.2964,79.8194 406.2634,79.7464 C406.2374,79.7424 406.2134,79.7384 406.1894,79.7344 C406.1384,79.7944 406.0544,79.8524 406.0474,79.9164" id="Fill-26" fill="#221F20"></path>
            <path d="M407.1792,79.7543 C407.2292,79.8043 407.2762,79.8893 407.3292,79.8943 C407.3842,79.8983 407.4472,79.8253 407.5062,79.7863 C407.4642,79.7313 407.4212,79.6763 407.3532,79.5883 C407.2772,79.6613 407.2282,79.7083 407.1792,79.7543" id="Fill-28" fill="#221F20"></path>
            <path d="M409.6479,84.058 C409.7179,84.165 409.7649,84.238 409.8419,84.357 C409.8929,84.263 409.9489,84.198 409.9569,84.127 C409.9599,84.096 409.8689,84.038 409.8119,84.023 C409.7669,84.01 409.7099,84.043 409.6479,84.058" id="Fill-30" fill="#221F20"></path>
            <path d="M412.229,80.6479 C412.2,80.6059 412.178,80.5419 412.14,80.5299 C412.105,80.5189 412.052,80.5659 411.973,80.6029 C412.04,80.6599 412.074,80.7109 412.115,80.7169 C412.149,80.7219 412.191,80.6729 412.229,80.6479" id="Fill-32" fill="#221F20"></path>
            <path d="M404.4497,80.4438 C404.4547,80.4868 404.4937,80.5458 404.5327,80.5598 C404.5607,80.5708 404.6417,80.5238 404.6457,80.4968 C404.6507,80.4558 404.6067,80.4098 404.5717,80.3408 C404.5137,80.3868 404.4477,80.4198 404.4497,80.4438" id="Fill-34" fill="#221F20"></path>
            <path d="M411.3237,86.1313 C411.3597,86.1303 411.4257,86.0753 411.4237,86.0503 C411.4187,86.0073 411.3787,85.9483 411.3387,85.9343 C411.2997,85.9183 411.2427,85.9483 411.1927,85.9583 C411.2057,85.9863 411.2187,86.0143 411.2297,86.0423 C411.2617,86.0743 411.2937,86.1323 411.3237,86.1313" id="Fill-36" fill="#221F20"></path>
            <path d="M408.7222,78.6928 C408.8732,78.6748 408.9092,78.5898 408.9292,78.4608 C408.9512,78.3208 409.0052,78.1868 409.0372,78.0488 C409.0582,77.9628 409.0672,77.8728 409.0792,77.7838 C409.0892,77.7138 409.0742,77.6288 409.1092,77.5778 C409.1872,77.4668 409.1932,77.3728 409.1342,77.2538 C409.0892,77.1608 409.0732,77.0538 409.0352,76.9568 C409.0072,76.8808 408.9802,76.7978 408.9292,76.7368 C408.7872,76.5668 408.6212,76.4168 408.4922,76.2388 C408.4272,76.1508 408.3722,76.1228 408.2752,76.1388 C408.1122,76.1668 407.9572,76.1558 407.8162,76.0488 C407.7542,76.0038 407.6672,75.9918 407.5912,75.9638 C407.5992,75.9808 407.6072,75.9988 407.6152,76.0158 C407.5442,76.1028 407.4842,76.2438 407.3982,76.2618 C407.3122,76.2808 407.2012,76.1758 407.1012,76.1268 C407.0422,76.3138 406.9512,76.4858 407.0682,76.6738 C407.0892,76.7088 407.0602,76.7828 407.0402,76.8328 C406.9742,76.9958 406.8862,77.1528 406.8402,77.3208 C406.8212,77.3918 406.8752,77.4898 406.9112,77.5688 C406.9472,77.6468 407.0092,77.7138 407.0462,77.7918 C407.1032,77.9108 407.1452,78.0358 407.1972,78.1578 C407.2222,78.2178 407.2722,78.2748 407.2802,78.3368 C407.2982,78.4768 407.3902,78.5448 407.5072,78.5738 C407.6822,78.6168 407.8262,78.7068 407.9802,78.7968 C408.1872,78.9218 408.3432,79.0458 408.3332,79.3068 C408.3312,79.3428 408.3492,79.3848 408.3712,79.4158 C408.3992,79.4528 408.4392,79.5028 408.4752,79.5038 C408.5112,79.5048 408.5782,79.4528 408.5792,79.4218 C408.5842,79.2708 408.5912,79.1148 408.5602,78.9688 C408.5192,78.7758 408.5332,78.7148 408.7222,78.6928" id="Fill-38" fill="#221F20"></path>
            <path d="M412.4819,82.6791 C412.3709,82.5571 412.2489,82.4371 412.1109,82.3501 C412.0409,82.3061 411.9209,82.3291 411.8269,82.3401 C411.7029,82.3541 411.5799,82.3781 411.4589,82.4101 C411.3779,82.4321 411.2549,82.4601 411.2399,82.5121 C411.2129,82.6001 411.2469,82.7111 411.2779,82.8051 C411.2879,82.8361 411.3139,82.8631 411.3409,82.8881 C411.3149,82.9031 411.2909,82.9221 411.2849,82.9431 C411.2749,82.9721 411.3179,83.0181 411.3549,83.0861 C411.3819,83.0571 411.4089,83.0341 411.4289,83.0161 C411.5109,83.2201 411.6749,83.3481 411.8529,83.4471 C412.0839,83.5751 412.2359,83.7231 412.2089,84.0071 C412.2039,84.0591 412.2499,84.1161 412.2719,84.1711 C412.2979,84.1631 412.3239,84.1551 412.3489,84.1471 C412.3429,84.0481 412.3289,83.9501 412.3319,83.8511 C412.3349,83.7471 412.3389,83.6401 412.3699,83.5421 C412.4099,83.4091 412.4679,83.2811 412.5319,83.1581 C412.6229,82.9831 412.6099,82.8201 412.4819,82.6791" id="Fill-40" fill="#221F20"></path>
            <path d="M410.103,85.433 C409.969,85.603 410.029,85.83 410.232,85.974 C410.433,86.116 410.499,86.099 410.605,85.881 C410.619,85.851 410.632,85.82 410.651,85.792 C410.737,85.668 410.685,85.563 410.614,85.455 C410.542,85.349 410.456,85.286 410.301,85.282 C410.234,85.331 410.153,85.37 410.103,85.433" id="Fill-42" fill="#221F20"></path>
            <path d="M413.0288,87.3647 C412.8778,87.3837 412.7708,87.5797 412.8058,87.7747 C412.8118,87.8077 412.8218,87.8407 412.8338,87.8717 C412.8788,87.9877 412.9608,88.0977 413.0868,88.0627 C413.1738,88.0377 413.2438,87.9287 413.3058,87.8467 C413.3328,87.8137 413.3218,87.7517 413.3238,87.7327 C413.3078,87.4947 413.1788,87.3467 413.0288,87.3647" id="Fill-44" fill="#221F20"></path>
            <path d="M412.9751,87.0209 C412.9661,86.8919 412.9001,86.8079 412.7711,86.7969 C412.6671,86.7899 412.5741,86.9289 412.5851,87.0599 C412.6111,87.1729 412.6621,87.2779 412.8001,87.2619 C412.9341,87.2489 412.9841,87.1499 412.9751,87.0209" id="Fill-46" fill="#221F20"></path>
            <path d="M412.8862,85.7201 C412.9352,85.7181 412.9802,85.6381 413.0522,85.5651 C412.9662,85.5081 412.9062,85.4371 412.8612,85.4461 C412.8142,85.4541 412.7512,85.5451 412.7552,85.5951 C412.7602,85.6441 412.8412,85.7221 412.8862,85.7201" id="Fill-48" fill="#221F20"></path>
            <path d="M413.6538,84.352 C413.7368,84.414 413.7878,84.479 413.8398,84.48 C413.8778,84.481 413.9528,84.392 413.9478,84.352 C413.9408,84.296 413.8728,84.248 413.8318,84.198 C413.7828,84.24 413.7338,84.282 413.6538,84.352" id="Fill-50" fill="#221F20"></path>
            <path d="M410.8198,94.1752 C410.8648,94.1302 410.9108,94.0852 410.9838,94.0132 C410.9028,93.9502 410.8528,93.9112 410.8018,93.8722 C410.7668,93.9282 410.7038,93.9832 410.7028,94.0382 C410.7028,94.0842 410.7778,94.1292 410.8198,94.1752" id="Fill-52" fill="#221F20"></path>
            <g id="Group-56" transform="translate(414.000000, 85.799000)">
                <mask id="mask-4" fill="white">
                    <use xlink:href="#path-3"></use>
                </mask>
                <g id="Clip-55"></g>
                <path d="M0.3062,0.551 C0.2732,0.544 0.2252,0.609 0.1502,0.668 C0.2322,0.719 0.2822,0.775 0.3222,0.768 C0.3662,0.761 0.4012,0.697 0.4392,0.658 C0.3962,0.62 0.3562,0.56 0.3062,0.551" id="Fill-54" fill="#221F20" mask="url(#mask-4)"></path>
            </g>
            <g id="Group-59" transform="translate(414.000000, 91.799000)">
                <mask id="mask-6" fill="white">
                    <use xlink:href="#path-5"></use>
                </mask>
                <g id="Clip-58"></g>
                <path d="M0.6733,0.1965 C0.6353,0.2015 0.6033,0.2615 0.5683,0.2985 C0.6053,0.3315 0.6403,0.3905 0.6783,0.3925 C0.7173,0.3945 0.7593,0.3405 0.8253,0.2915 C0.7573,0.2455 0.7123,0.1925 0.6733,0.1965" id="Fill-57" fill="#221F20" mask="url(#mask-6)"></path>
            </g>
            <path d="M411.1089,87.3881 C411.1019,87.3461 411.0519,87.3111 411.0199,87.2731 C410.9889,87.3051 410.9579,87.3361 410.9259,87.3681 L410.8819,87.4501 C410.9309,87.4631 410.9829,87.4921 411.0269,87.4831 C411.0619,87.4761 411.1129,87.4161 411.1089,87.3881" id="Fill-60" fill="#221F20"></path>
            <path d="M413.1929,85.311 C413.1869,85.274 413.1389,85.244 413.1099,85.21 C413.0829,85.245 413.0369,85.278 413.0349,85.314 C413.0319,85.349 413.0739,85.388 413.1179,85.463 C413.1579,85.386 413.1979,85.345 413.1929,85.311" id="Fill-62" fill="#221F20"></path>
            <path d="M53.5601,26.1362 C53.7921,25.4552 54.0251,24.7852 54.2531,24.1332 C56.4431,17.8952 49.8261,0.0002 41.5921,0.0002 C22.5411,0.4002 3.9041,21.4902 3.8821,37.4762 C3.8801,38.5902 3.9391,39.8292 4.0691,41.1142 C4.2681,39.7392 4.5941,38.3552 5.0461,37.0002 C5.7331,34.9482 5.6811,35.4542 5.5121,37.6122 C5.2461,41.0362 5.6331,45.2142 7.3761,48.5722 C7.3451,48.5872 7.3101,48.6302 7.2571,48.6782 C7.3301,48.7282 7.3791,48.7852 7.4131,48.7782 C7.4291,48.7742 7.4491,48.7562 7.4651,48.7382 C7.5271,48.8522 7.5841,48.9692 7.6491,49.0812 C7.4531,49.1852 7.2981,49.4312 7.3061,49.6822 C7.3201,49.7092 7.3481,49.7772 7.3871,49.8362 C7.4421,49.9202 7.5131,49.9932 7.5621,50.0802 C7.6501,50.2332 8.1401,50.3332 8.2721,50.2182 C8.2761,50.2152 8.2791,50.2112 8.2831,50.2072 C8.3011,50.1862 8.3131,50.1602 8.3311,50.1382 C9.5331,51.7992 11.1691,53.1412 13.3691,53.9002 C13.3911,53.8952 13.4141,53.8872 13.4351,53.8812 C13.3761,53.9792 13.3431,54.1372 13.3891,54.2202 C13.4371,54.3082 13.6081,54.3562 13.7301,54.3682 C13.8891,54.3852 13.9561,54.2872 13.9441,54.1462 C13.9241,54.0202 13.9171,53.9122 13.8871,53.8122 C13.8801,53.7892 13.8591,53.7612 13.8361,53.7402 C14.2801,53.5302 14.6581,53.1272 14.8071,52.3762 C14.8711,52.4172 14.9121,52.4612 14.9431,52.4552 C14.9801,52.4482 15.0071,52.3932 15.0391,52.3592 C15.0041,52.3272 14.9711,52.2762 14.9351,52.2732 C14.9031,52.2712 14.8671,52.3162 14.8101,52.3612 C14.8511,52.1492 14.8801,51.9192 14.8811,51.6472 C14.8821,50.9482 14.9611,50.2142 15.1001,49.4562 C15.1771,49.5902 15.3411,49.6742 15.5291,49.6602 C15.7711,49.6432 15.9601,49.4602 15.9521,49.2512 C15.9431,49.0352 15.7311,48.8682 15.4811,48.8812 C15.3671,48.8862 15.2681,48.9322 15.1921,48.9972 C15.2621,48.6672 15.3431,48.3322 15.4361,47.9942 C15.5351,48.0572 15.6501,48.0922 15.7851,48.0872 C15.8961,48.0842 16.0181,48.0352 16.1051,48.1582 C16.1171,48.1742 16.1771,48.1802 16.1881,48.1672 C16.2131,48.1392 16.2301,48.0972 16.2361,48.0582 C16.2531,47.9252 16.2621,47.7902 16.2831,47.6572 C16.3161,47.4342 16.3231,47.2222 16.1171,47.0672 C16.0891,47.0462 16.0741,47.0082 16.0541,46.9782 C16.0211,46.9302 15.9891,46.8812 15.9561,46.8332 C15.9121,46.8692 15.8661,46.9062 15.8051,46.9542 C15.7921,46.9512 15.7681,46.9462 15.7501,46.9422 C18.2161,39.4052 25.2541,30.5532 27.8141,28.3062 C30.1841,26.2252 31.9121,25.9682 32.3651,27.2652 C23.0011,56.6772 11.9151,100.8102 11.9001,112.7392 C11.8821,125.4932 17.0021,130.2822 26.0441,130.4792 C26.5071,130.4892 26.9021,130.1352 26.9521,129.6742 C28.9681,111.2392 42.8801,57.5132 53.5631,26.1402 L53.5601,26.1362 Z" id="Fill-64" fill="#221F20"></path>
            <polygon id="Fill-66" fill="#221F20" points="239.8306 155.5014 234.1656 146.3874 229.0546 146.3874 229.0546 167.9414 233.7026 167.9414 233.7026 153.9624 239.7076 163.0764 239.8306 163.0764 245.8956 153.8694 245.8956 167.9414 250.6066 167.9414 250.6066 146.3874 245.4956 146.3874"></polygon>
            <polygon id="Fill-68" fill="#221F20" points="272.9624 159.1967 283.1224 159.1967 283.1224 154.9777 272.9624 154.9777 272.9624 150.6057 284.5094 150.6057 284.5094 146.3867 268.2514 146.3867 268.2514 167.9417 284.6614 167.9417 284.6614 163.7227 272.9624 163.7227"></polygon>
            <path d="M316.3765,157.226 C316.3765,161.044 313.7595,163.662 309.8795,163.662 L306.2165,163.662 L306.2165,150.667 L309.8795,150.667 C313.7595,150.667 316.3765,153.346 316.3765,157.164 L316.3765,157.226 Z M309.8795,146.387 L301.4745,146.387 L301.4745,167.942 L309.8795,167.942 C316.6535,167.942 321.3335,163.23 321.3335,157.164 L321.3335,157.103 C321.3335,151.037 316.6535,146.387 309.8795,146.387 L309.8795,146.387 Z" id="Fill-70" fill="#221F20"></path>
            <mask id="mask-8" fill="white">
                <use xlink:href="#path-7"></use>
            </mask>
            <g id="Clip-73"></g>
            <polygon id="Fill-72" fill="#221F20" mask="url(#mask-8)" points="337.971 167.942 342.713 167.942 342.713 146.387 337.971 146.387"></polygon>
            <path d="M366.6694,158.9194 L369.5334,151.9294 L372.3974,158.9194 L366.6694,158.9194 Z M367.4084,146.2334 L358.1714,167.9414 L363.0054,167.9414 L364.9764,163.1074 L374.0904,163.1074 L376.0614,167.9414 L381.0194,167.9414 L371.7804,146.2334 L367.4084,146.2334 Z" id="Fill-74" fill="#221F20" mask="url(#mask-8)"></path>
            <path d="M4.8257,50.6811 C4.6747,50.6441 4.5427,50.7021 4.5117,50.8191 C4.4777,50.9371 4.5667,51.0551 4.7167,51.0911 C4.8667,51.1271 4.9957,51.0651 5.0227,50.9421 C5.0507,50.8231 4.9697,50.7151 4.8257,50.6811" id="Fill-75" fill="#221F20" mask="url(#mask-8)"></path>
            <path d="M10.6069,55.4028 C10.5169,55.3748 10.4119,55.4248 10.4149,55.5318 C10.4179,55.5958 10.4869,55.6948 10.5449,55.7108 C10.6059,55.7268 10.6889,55.6638 10.7629,55.6348 C10.7679,55.6108 10.7729,55.5868 10.7789,55.5608 C10.7219,55.5068 10.6729,55.4238 10.6069,55.4028" id="Fill-76" fill="#221F20" mask="url(#mask-8)"></path>
            <path d="M9.8374,52.0971 C9.7714,52.1361 9.6694,52.1621 9.6484,52.2191 C9.6274,52.2731 9.6914,52.3591 9.7164,52.4301 C9.7394,52.4361 9.7634,52.4421 9.7854,52.4481 C9.8374,52.3941 9.9224,52.3461 9.9334,52.2851 C9.9424,52.2301 9.8724,52.1601 9.8374,52.0971" id="Fill-77" fill="#221F20" mask="url(#mask-8)"></path>
            <path d="M6.8257,48.0912 C6.7667,47.9852 6.7277,47.9132 6.6637,47.7942 C6.6087,47.8792 6.5507,47.9372 6.5387,48.0032 C6.5327,48.0322 6.6147,48.0942 6.6677,48.1132 C6.7087,48.1282 6.7657,48.1012 6.8257,48.0912" id="Fill-78" fill="#221F20" mask="url(#mask-8)"></path>
            <path d="M4.2407,51.0776 C4.2087,51.0706 4.1657,51.1136 4.1277,51.1356 C4.1517,51.1766 4.1677,51.2396 4.2027,51.2536 C4.2347,51.2656 4.2887,51.2256 4.3667,51.1956 C4.3077,51.1376 4.2787,51.0866 4.2407,51.0776" id="Fill-79" fill="#221F20" mask="url(#mask-8)"></path>
            <path d="M5.3901,46.0024 C5.3561,46.0004 5.2891,46.0474 5.2901,46.0724 C5.2911,46.1134 5.3261,46.1714 5.3621,46.1894 C5.3981,46.2064 5.4531,46.1824 5.5011,46.1764 C5.4921,46.1484 5.4821,46.1214 5.4721,46.0934 C5.4451,46.0614 5.4191,46.0044 5.3901,46.0024" id="Fill-80" fill="#221F20" mask="url(#mask-8)"></path>
            <path d="M5.0278,48.9897 C5.0248,49.0227 5.0618,49.0847 5.0898,49.0897 C5.1208,49.0947 5.1788,49.0597 5.1918,49.0287 C5.2028,49.0017 5.1658,48.9557 5.1358,48.8877 C5.0828,48.9357 5.0308,48.9607 5.0278,48.9897" id="Fill-81" fill="#221F20" mask="url(#mask-8)"></path>
            <path d="M15.1675,55.7885 C15.2255,55.8955 15.3185,55.9895 15.4115,56.0715 C15.5045,56.1535 15.6195,56.2105 15.7195,56.2855 C15.8715,56.4015 16.0755,56.3795 16.1655,56.2405 C16.2755,56.0665 16.3785,55.8825 16.5185,55.7335 C16.6535,55.5885 16.6685,55.4465 16.6335,55.2685 C16.6035,55.1135 16.5755,54.9515 16.5855,54.7955 C16.5985,54.6145 16.5375,54.4115 16.7005,54.2555 C16.7215,54.2355 16.6955,54.1645 16.6875,54.1175 C16.6715,54.0405 16.6345,53.9635 16.6385,53.8875 C16.6435,53.7885 16.6805,53.6905 16.7005,53.5925 C16.7465,53.3815 16.7495,53.1915 16.5505,53.0335 C16.4605,52.9615 16.4495,52.8035 16.3235,52.7385 C16.3065,52.7305 16.3135,52.6795 16.3075,52.6475 C16.2985,52.6025 16.2885,52.5595 16.2795,52.5145 C16.2635,52.5115 16.2475,52.5095 16.2315,52.5065 C16.1885,52.5975 16.1455,52.6875 16.1105,52.7585 C16.0305,52.7545 15.9755,52.7515 15.9195,52.7485 C15.9525,52.8075 15.9845,52.8665 16.0325,52.9555 C15.9935,52.9995 15.9505,53.0785 15.8845,53.1185 C15.7635,53.1905 15.6305,53.2495 15.4975,53.2995 C15.1615,53.4245 14.9855,53.7875 15.0815,54.1365 C15.1535,54.4025 15.2165,54.6855 15.1085,54.9505 C14.9875,55.2505 15.0265,55.5225 15.1675,55.7885" id="Fill-82" fill="#221F20" mask="url(#mask-8)"></path>
            <path d="M13.4575,62.8891 C13.5275,63.0201 13.6065,63.1341 13.6495,63.2591 C13.6965,63.3911 13.9485,63.6431 14.0855,63.6441 C14.2715,63.6461 14.4545,63.6451 14.5385,63.8831 C14.5365,63.5331 14.9275,63.5491 15.0465,63.2751 C15.2125,63.4621 15.3645,63.6291 15.5105,63.8041 C15.7415,64.0811 15.9895,64.1221 16.3585,64.0061 C16.6045,63.9291 16.7695,63.5281 16.6645,63.3011 C16.4585,62.8521 15.6705,62.4431 15.1925,62.5551 C15.0195,62.5971 14.9125,62.5801 14.8355,62.4091 C14.7825,62.2931 14.6855,62.2321 14.5465,62.2851 C14.3215,62.3701 14.1345,62.3051 13.9705,62.1411 C13.9445,62.1161 13.8725,62.0941 13.8685,62.1001 C13.7925,62.2211 13.6865,62.1881 13.5385,62.1331 C13.6575,62.2841 13.7725,62.4001 13.6455,62.5511 C13.5565,62.6581 13.6665,62.8711 13.4575,62.8891" id="Fill-83" fill="#221F20" mask="url(#mask-8)"></path>
            <path d="M7.6421,54.5385 C7.5401,54.5785 7.4321,54.6065 7.3371,54.6605 C7.1341,54.7765 7.1031,54.8975 7.2041,55.1085 C7.3061,55.3255 7.5321,55.4595 7.7691,55.4455 C8.0171,55.4315 8.2381,55.2195 8.2141,55.0185 C8.1861,54.7895 7.8821,54.5415 7.6421,54.5385" id="Fill-84" fill="#221F20" mask="url(#mask-8)"></path>
            <path d="M9.1362,53.6967 C9.0252,53.6487 8.9042,53.6017 8.7842,53.5967 C8.7002,53.5927 8.6132,53.6587 8.5242,53.6937 C8.5232,53.7087 8.5152,53.7267 8.5212,53.7387 C8.5752,53.8657 8.6432,53.9897 8.5462,54.1287 C8.5392,54.1377 8.5872,54.1997 8.6202,54.2197 C8.6972,54.2677 8.7822,54.2987 8.8572,54.3477 C9.0322,54.4667 9.2222,54.4647 9.3272,54.3347 C9.4872,54.1387 9.4702,53.9987 9.2732,53.8287 C9.2242,53.7867 9.1912,53.7187 9.1362,53.6967" id="Fill-85" fill="#221F20" mask="url(#mask-8)"></path>
            <path d="M8.0259,51.308 C7.8749,51.288 7.7199,51.296 7.5679,51.292 C7.3839,51.285 7.4139,51.463 7.3489,51.543 C7.3389,51.555 7.4079,51.629 7.4409,51.673 C7.4569,51.694 7.4719,51.716 7.4939,51.73 C7.6169,51.814 7.7319,51.916 7.8669,51.974 C8.0169,52.038 8.2119,51.902 8.2519,51.734 C8.3039,51.51 8.2179,51.333 8.0259,51.308" id="Fill-86" fill="#221F20" mask="url(#mask-8)"></path>
            <path d="M14.0669,58.4858 C14.0759,58.6888 14.1569,58.7478 14.3029,58.7008 C14.4339,58.6588 14.5599,58.5978 14.6919,58.5628 C14.8729,58.5148 14.9449,58.3508 14.8159,58.2188 C14.5909,57.9878 14.4509,57.9558 14.2699,58.1968 C14.2419,58.2348 14.1949,58.2578 14.1699,58.2978 C14.1229,58.3708 14.0869,58.4488 14.0669,58.4858" id="Fill-87" fill="#221F20" mask="url(#mask-8)"></path>
            <path d="M16.3823,51.0707 C16.5133,51.0127 16.5623,50.8847 16.5483,50.7397 C16.5383,50.6407 16.4833,50.5927 16.3853,50.5767 C16.3373,50.5677 16.2943,50.5297 16.2463,50.5147 C16.2003,50.5017 16.1303,50.4797 16.1093,50.5007 C16.0483,50.5567 16.0073,50.6347 15.9483,50.7177 C16.0233,50.8487 16.0623,50.9687 16.1433,51.0477 C16.1903,51.0917 16.3163,51.1007 16.3823,51.0707" id="Fill-88" fill="#221F20" mask="url(#mask-8)"></path>
            <path d="M6.9741,56.5053 C6.8041,56.5263 6.6581,56.4973 6.5091,56.4023 C6.3981,56.3313 6.3081,56.4063 6.3201,56.5343 C6.3321,56.6643 6.4531,56.7883 6.5461,56.7443 C6.6651,56.6883 6.7341,56.7313 6.8291,56.7913 C6.8781,56.8223 6.9861,56.8013 7.0421,56.7653 C7.0851,56.7373 7.1091,56.6473 7.1031,56.5893 C7.0991,56.5553 7.0151,56.5003 6.9741,56.5053" id="Fill-89" fill="#221F20" mask="url(#mask-8)"></path>
            <path d="M7.8921,53.0629 C7.8771,52.8369 7.7951,52.7609 7.5971,52.7769 C7.4371,52.7899 7.3721,52.8579 7.3841,53.0059 C7.3991,53.1849 7.5301,53.2849 7.7251,53.2769 C7.8801,53.2699 7.9101,53.1819 7.8921,53.0629" id="Fill-90" fill="#221F20" mask="url(#mask-8)"></path>
            <path d="M8.4458,52.6996 C8.4528,52.8106 8.5698,52.8946 8.7128,52.8886 C8.8608,52.8836 8.9828,52.7856 8.9838,52.6746 C8.9838,52.5616 8.8548,52.4706 8.7048,52.4776 C8.7008,52.4776 8.6978,52.4816 8.6928,52.4816 C8.7558,52.4306 8.8038,52.3896 8.8488,52.3546 C8.8038,52.3036 8.7668,52.2206 8.7168,52.2126 C8.6638,52.2036 8.5988,52.2676 8.5408,52.3016 C8.5758,52.3536 8.6118,52.4096 8.6658,52.4916 C8.5388,52.5136 8.4398,52.5956 8.4458,52.6996" id="Fill-91" fill="#221F20" mask="url(#mask-8)"></path>
            <path d="M7.1851,52.4174 C7.3161,52.2814 7.3331,52.1254 7.2201,52.0294 C7.1791,51.9944 7.0971,51.9694 7.0541,51.9874 C7.0111,52.0064 6.9741,52.0844 6.9721,52.1384 C6.9701,52.2814 7.0641,52.3624 7.1851,52.4174" id="Fill-92" fill="#221F20" mask="url(#mask-8)"></path>
            <path d="M10.1167,54.2748 C10.0447,54.2898 9.9877,54.3678 9.9237,54.4178 C9.9257,54.4398 9.9277,54.4618 9.9287,54.4848 C10.0107,54.5258 10.0907,54.5898 10.1757,54.5998 C10.2167,54.6038 10.3057,54.5038 10.3067,54.4498 C10.3087,54.3438 10.2357,54.2488 10.1167,54.2748" id="Fill-93" fill="#221F20" mask="url(#mask-8)"></path>
            <path d="M14.2456,57.5551 C14.2476,57.6591 14.3076,57.7121 14.4056,57.7051 C14.5226,57.6971 14.5656,57.6141 14.5616,57.5061 C14.5576,57.4071 14.5046,57.3521 14.4236,57.3551 C14.2786,57.3691 14.2416,57.4461 14.2456,57.5551" id="Fill-94" fill="#221F20" mask="url(#mask-8)"></path>
            <path d="M12.4956,57.3383 C12.4486,57.3953 12.3646,57.4533 12.3666,57.5083 C12.3706,57.5673 12.4546,57.6203 12.5416,57.7203 C12.6046,57.6173 12.6776,57.5463 12.6626,57.5173 C12.6286,57.4463 12.5546,57.3973 12.4956,57.3383" id="Fill-95" fill="#221F20" mask="url(#mask-8)"></path>
            <path d="M9.5542,56.5444 C9.5932,56.5984 9.6492,56.6424 9.7062,56.6784 C9.7122,56.6824 9.7952,56.6044 9.7882,56.5844 C9.7662,56.5254 9.7162,56.4794 9.6572,56.3984 C9.6032,56.4734 9.5462,56.5334 9.5542,56.5444" id="Fill-96" fill="#221F20" mask="url(#mask-8)"></path>
            <path d="M14.5415,55.1186 C14.5065,55.0776 14.4505,55.0496 14.3965,55.0316 C14.3865,55.0286 14.3255,55.1036 14.3345,55.1216 C14.3565,55.1696 14.4035,55.2066 14.4675,55.2746 C14.5055,55.1966 14.5545,55.1326 14.5415,55.1186" id="Fill-97" fill="#221F20" mask="url(#mask-8)"></path>
            <path d="M-0.0005,46.4701 C0.0295,46.4991 0.0605,46.5281 0.1045,46.5721 C0.1515,46.5241 0.1845,46.4911 0.2165,46.4561 C0.1785,46.4301 0.1395,46.3811 0.1035,46.3831 C0.0665,46.3841 0.0345,46.4391 -0.0005,46.4701" id="Fill-98" fill="#221F20" mask="url(#mask-8)"></path>
            <path d="M7.1167,52.6918 C7.0757,52.7038 7.0427,52.7448 6.9777,52.7948 C7.0447,52.8298 7.0917,52.8728 7.1147,52.8628 C7.1517,52.8458 7.1807,52.7958 7.1967,52.7548 C7.2007,52.7438 7.1377,52.6858 7.1167,52.6918" id="Fill-99" fill="#221F20" mask="url(#mask-8)"></path>
            <path d="M15.4839,52.2729 C15.4469,52.2719 15.4099,52.3039 15.3379,52.3379 C15.4029,52.3799 15.4409,52.4229 15.4639,52.4169 C15.5069,52.4049 15.5409,52.3629 15.5779,52.3339 C15.5459,52.3119 15.5149,52.2729 15.4839,52.2729" id="Fill-100" fill="#221F20" mask="url(#mask-8)"></path>
            <path d="M14.0034,58.3881 C13.9794,58.3541 13.9594,58.3011 13.9284,58.2931 C13.8974,58.2841 13.8544,58.3231 13.7824,58.3561 C13.8454,58.4021 13.8764,58.4411 13.9114,58.4451 C13.9404,58.4491 13.9734,58.4091 14.0034,58.3881" id="Fill-101" fill="#221F20" mask="url(#mask-8)"></path>
            <path d="M2.6196,39.6176 C2.4646,39.5746 2.2946,39.5466 2.1326,39.5596 C1.9366,39.5766 1.8096,39.9026 1.9506,40.0216 C2.0656,40.1196 2.2236,40.1696 2.3626,40.2416 C2.3706,40.2266 2.3796,40.2126 2.3886,40.1986 C2.4196,40.1966 2.4506,40.1966 2.4826,40.1916 C2.6226,40.1706 2.8056,40.0306 2.8256,39.9166 C2.8556,39.7496 2.7506,39.6546 2.6196,39.6176" id="Fill-102" fill="#221F20" mask="url(#mask-8)"></path>
            <path d="M254.1294,50.392 C254.2434,50.463 254.3244,50.551 254.3764,50.537 C254.4374,50.519 254.5154,50.408 254.5074,50.346 C254.5004,50.283 254.4004,50.188 254.3394,50.186 C254.2844,50.185 254.2264,50.291 254.1294,50.392" id="Fill-103" fill="#221F20" mask="url(#mask-8)"></path>
            <path d="M248.6479,15.9496 C248.9339,15.9316 249.1209,15.6796 249.1049,15.3336 C249.0889,14.9706 248.8739,14.7136 248.5889,14.7186 C248.3019,14.7226 248.0969,15.0006 248.1139,15.3586 C248.1299,15.7206 248.3549,15.9686 248.6479,15.9496" id="Fill-104" fill="#221F20" mask="url(#mask-8)"></path>
            <path d="M256.3599,23.2377 C256.6029,23.2347 256.8229,22.9937 256.8159,22.7157 C256.7679,22.4667 256.6429,22.2597 256.3369,22.2687 C256.0349,22.2787 255.8959,22.4767 255.8849,22.7597 C255.8769,23.0137 256.1129,23.2407 256.3599,23.2377" id="Fill-105" fill="#221F20" mask="url(#mask-8)"></path>
            <path d="M261.5669,19.5971 C261.6769,19.4331 261.8599,19.2781 261.8799,19.1031 C261.9099,18.8441 261.7199,18.6531 261.4429,18.6611 C261.1639,18.6711 260.9939,18.8821 261.0429,19.1361 C261.0759,19.3081 261.2689,19.4501 261.3899,19.6051 C261.4499,19.6021 261.5079,19.6001 261.5669,19.5971" id="Fill-106" fill="#221F20" mask="url(#mask-8)"></path>
            <path d="M263.0386,24.2074 C263.0096,24.0774 262.8396,23.9814 262.7306,23.8714 C262.6366,23.9934 262.4796,24.1094 262.4666,24.2404 C262.4566,24.3444 262.6206,24.4644 262.7786,24.6684 C262.9116,24.4474 263.0616,24.3074 263.0386,24.2074" id="Fill-107" fill="#221F20" mask="url(#mask-8)"></path>
            <path d="M267.5835,19.2817 C267.5625,19.1667 267.3945,19.0787 267.2905,18.9777 C267.2005,19.0927 267.0425,19.2047 267.0395,19.3207 C267.0365,19.4347 267.1925,19.5527 267.3515,19.7637 C267.4715,19.5317 267.6035,19.3927 267.5835,19.2817" id="Fill-108" fill="#221F20" mask="url(#mask-8)"></path>
            <path d="M256.7866,17.5561 C256.5586,17.4881 256.3916,17.3961 256.2336,17.4111 C256.1656,17.4181 256.0816,17.6431 256.0726,17.7741 C256.0656,17.8771 256.1636,17.9881 256.2246,18.1151 C256.4276,17.9141 256.5616,17.7801 256.7866,17.5561" id="Fill-109" fill="#221F20" mask="url(#mask-8)"></path>
            <path d="M266.1851,15.7885 C266.2921,15.7905 266.4021,15.6385 266.5871,15.4905 C266.3941,15.3395 266.2851,15.2525 266.1741,15.1655 C266.0891,15.2795 265.9431,15.3915 265.9371,15.5095 C265.9331,15.6045 266.0951,15.7875 266.1851,15.7885" id="Fill-110" fill="#221F20" mask="url(#mask-8)"></path>
            <path d="M275.7397,21.9076 C275.8277,21.8106 275.9157,21.7136 276.0457,21.5696 C275.8907,21.4436 275.7887,21.3606 275.6867,21.2766 C275.6207,21.3956 275.5047,21.5156 275.5067,21.6346 C275.5087,21.7266 275.6567,21.8166 275.7397,21.9076" id="Fill-111" fill="#221F20" mask="url(#mask-8)"></path>
            <path d="M262.5229,28.3442 C262.5019,28.2472 262.3609,28.1762 262.2709,28.0942 C262.1969,28.1812 262.0659,28.2672 262.0659,28.3552 C262.0639,28.4522 262.1809,28.5512 262.3119,28.7482 C262.4249,28.5442 262.5419,28.4302 262.5229,28.3442" id="Fill-112" fill="#221F20" mask="url(#mask-8)"></path>
            <path d="M247.8315,14.2836 C247.8265,14.2066 247.7005,14.1376 247.6285,14.0656 C247.5525,14.1476 247.4215,14.2246 247.4135,14.3136 C247.4055,14.3936 247.5305,14.4866 247.6475,14.6426 C247.7415,14.4726 247.8385,14.3746 247.8315,14.2836" id="Fill-113" fill="#221F20" mask="url(#mask-8)"></path>
            <path d="M259.8257,13.7592 C259.8807,13.6762 259.9917,13.5802 259.9757,13.5142 C259.9587,13.4362 259.8087,13.3192 259.7547,13.3362 C259.6627,13.3652 259.5547,13.4812 259.5397,13.5732 C259.5247,13.6662 259.6147,13.7762 259.6597,13.8782 C259.7147,13.8382 259.7697,13.7982 259.8257,13.7592" id="Fill-114" fill="#221F20" mask="url(#mask-8)"></path>
            <path d="M253.0542,15.0668 C253.1222,15.0728 253.2002,14.9578 253.3332,14.8478 C253.1912,14.7588 253.1012,14.6588 253.0332,14.6718 C252.9562,14.6868 252.8442,14.8098 252.8512,14.8758 C252.8592,14.9508 252.9762,15.0598 253.0542,15.0668" id="Fill-115" fill="#221F20" mask="url(#mask-8)"></path>
            <path d="M241.2769,35.311 C241.5499,35.279 241.5859,35.092 241.5619,34.911 C241.7499,34.855 241.9059,34.819 242.0529,34.762 C242.4329,34.617 242.8689,34.813 243.0249,35.2 C243.0689,35.311 243.1399,35.412 243.2129,35.544 C243.2139,35.542 243.1829,35.567 243.1599,35.597 C243.1129,35.659 243.0269,35.731 243.0369,35.785 C243.0609,35.931 243.0499,36.014 242.9079,36.111 C242.8039,36.181 242.7199,36.255 242.5899,36.29 C242.4819,36.32 242.3829,36.411 242.2979,36.493 C242.2109,36.575 242.1339,36.589 242.0699,36.49 C241.9769,36.347 241.8559,36.358 241.7309,36.415 C241.6389,36.456 241.5909,36.45 241.5789,36.343 C241.5759,36.319 241.5739,36.284 241.5579,36.274 C241.3299,36.13 241.4219,35.942 241.4779,35.752 C241.5229,35.597 241.4369,35.512 241.2979,35.458 C241.2649,35.446 241.2389,35.406 241.2219,35.373 C241.2169,35.363 241.2559,35.314 241.2769,35.311 M242.9569,52.108 C242.9679,52.085 242.9809,52.064 242.9919,52.041 C243.0439,51.928 243.1179,51.844 243.2199,51.767 C243.3799,51.647 243.5429,51.516 243.6599,51.357 C243.7569,51.222 243.8899,51.188 244.0189,51.134 C244.1749,51.07 244.3399,51.019 244.5049,50.988 C244.5839,50.972 244.6829,50.995 244.7569,51.033 C244.9469,51.131 245.0679,51.301 245.1439,51.498 C245.2469,51.763 245.3389,52.034 245.4349,52.303 C245.4509,52.348 245.4509,52.398 245.4589,52.446 C245.4639,52.673 245.4589,52.669 245.2559,52.776 C245.2189,52.794 245.1869,52.818 245.1519,52.837 C245.3189,52.856 245.4859,52.882 245.6539,52.882 C247.9859,52.882 251.9219,42.222 259.8059,34.834 C262.2009,32.59 259.8549,28.649 256.4139,25.915 C256.3429,25.477 256.0059,25.142 255.6239,25.179 C255.5739,25.185 255.5329,25.21 255.4869,25.227 C254.9159,24.831 254.3239,24.472 253.7279,24.162 C253.7429,24.137 253.7689,24.111 253.7709,24.086 C253.7779,24.007 253.6339,23.839 253.5699,23.845 C253.4979,23.852 253.4169,23.909 253.3569,23.972 C252.0029,23.314 250.6359,22.916 249.4289,22.916 C248.7259,22.916 248.0409,23.044 247.3759,23.273 C247.1169,23.186 246.8119,23.246 246.6149,23.425 C246.4999,23.531 246.3669,23.618 246.2459,23.717 C246.2259,23.733 246.2089,23.767 246.1909,23.797 C245.9739,23.916 245.7589,24.047 245.5479,24.187 C245.2379,23.998 244.8739,23.892 244.4629,23.942 C244.2439,24.04 243.9879,24.095 243.8139,24.246 C243.3589,24.64 242.9779,25.116 242.9389,25.743 C242.9269,25.948 243.0439,26.164 243.0949,26.373 C239.4029,30.565 237.0049,37.654 236.9979,42.365 C236.9939,45.575 239.6619,50.28 242.9569,52.108" id="Fill-116" fill="#221F20" mask="url(#mask-8)"></path>
            <path d="M270.9937,54.5287 C271.1427,54.4567 271.2967,54.3917 271.4427,54.3117 C271.5817,54.2357 271.7357,54.1667 271.8427,54.0547 C272.1247,53.7567 272.2747,53.1997 271.9207,52.8417 C271.8317,52.7947 271.7477,52.7227 271.6517,52.7047 C271.4037,52.6547 271.1477,52.6517 270.9317,52.7997 C270.8337,52.8677 270.7927,53.0197 270.6927,53.0807 C270.4237,53.2457 270.4627,53.5197 270.4487,53.7567 C270.4367,53.9507 270.5137,54.1547 270.5677,54.3487 C270.6287,54.5607 270.7957,54.6237 270.9937,54.5287" id="Fill-117" fill="#221F20" mask="url(#mask-8)"></path>
            <path d="M274.3198,57.35 C274.4748,57.215 274.5058,56.991 274.3858,56.865 C274.2708,56.743 274.0618,56.754 273.9098,56.892 C273.7578,57.031 273.7338,57.231 273.8548,57.361 C273.9688,57.482 274.1728,57.478 274.3198,57.35" id="Fill-118" fill="#221F20" mask="url(#mask-8)"></path>
            <path d="M275.6489,52.1664 C275.7279,52.2574 275.8609,52.2544 275.9709,52.1594 C276.0869,52.0604 276.1169,51.9224 276.0429,51.8294 C275.9659,51.7354 275.8219,51.7384 275.7069,51.8374 C275.5909,51.9364 275.5679,52.0744 275.6489,52.1664" id="Fill-119" fill="#221F20" mask="url(#mask-8)"></path>
            <path d="M271.6499,56.0131 C271.7769,55.8951 271.7979,55.8211 271.7279,55.7381 C271.6739,55.6741 271.3919,55.6791 271.3229,55.7511 C271.2299,55.8471 271.2769,55.9471 271.3409,56.0301 C271.4199,56.1321 271.5349,56.1201 271.6499,56.0131" id="Fill-120" fill="#221F20" mask="url(#mask-8)"></path>
            <path d="M275.5112,56.6244 C275.5812,56.5444 275.6172,56.4494 275.5342,56.3504 C275.4542,56.2524 275.3532,56.2574 275.2562,56.3274 C275.1692,56.3904 275.1562,56.5264 275.2202,56.6074 C275.2842,56.6874 275.4202,56.6984 275.5112,56.6244" id="Fill-121" fill="#221F20" mask="url(#mask-8)"></path>
            <path d="M268.8784,54.0512 C268.9514,53.9952 268.9724,53.8822 268.8854,53.8242 C268.8334,53.7882 268.7144,53.7872 268.6674,53.8242 C268.6184,53.8642 268.6214,53.9672 268.6014,54.0422 C268.6184,54.0602 268.6354,54.0782 268.6514,54.0972 C268.7294,54.0832 268.8214,54.0922 268.8784,54.0512" id="Fill-122" fill="#221F20" mask="url(#mask-8)"></path>
            <path d="M271.9683,55.1166 C271.9373,55.0696 271.8313,55.0706 271.7593,55.0506 C271.7413,55.0656 271.7243,55.0806 271.7063,55.0956 C271.7193,55.1686 271.7083,55.2626 271.7513,55.3056 C271.7893,55.3456 271.8853,55.3306 271.9563,55.3386 C271.9623,55.2626 272.0003,55.1666 271.9683,55.1166" id="Fill-123" fill="#221F20" mask="url(#mask-8)"></path>
            <path d="M272.5093,54.3793 C272.5463,54.3423 272.5323,54.2533 272.5403,54.1883 C272.4763,54.1853 272.4103,54.1823 272.3063,54.1773 C272.3123,54.2753 272.3163,54.3393 272.3203,54.4013 C272.3853,54.3973 272.4743,54.4143 272.5093,54.3793" id="Fill-124" fill="#221F20" mask="url(#mask-8)"></path>
            <path d="M271.9829,58.6821 C272.0889,58.6721 272.1749,58.6891 272.2009,58.6571 C272.2359,58.6131 272.2249,58.5331 272.2339,58.4671 C272.1689,58.4651 272.0899,58.4421 272.0409,58.4691 C272.0049,58.4901 272.0079,58.5781 271.9829,58.6821" id="Fill-125" fill="#221F20" mask="url(#mask-8)"></path>
            <path d="M277.1196,55.0619 C277.0986,55.0409 277.0036,55.0719 276.9586,55.1019 C276.9216,55.1259 276.9106,55.1879 276.8846,55.2409 C277.0026,55.2559 277.0816,55.2659 277.2146,55.2829 C277.1776,55.1899 277.1656,55.1109 277.1196,55.0619" id="Fill-126" fill="#221F20" mask="url(#mask-8)"></path>
            <path d="M274.271,55.9682 C274.3,55.9492 274.318,55.8592 274.3,55.8392 C274.269,55.8072 274.195,55.7832 274.159,55.8002 C274.125,55.8152 274.117,55.8872 274.082,55.9712 C274.173,55.9722 274.236,55.9902 274.271,55.9682" id="Fill-127" fill="#221F20" mask="url(#mask-8)"></path>
            <path d="M276.0112,51.3422 C275.9642,51.3382 275.9052,51.3152 275.8732,51.3342 C275.8452,51.3532 275.8452,51.4182 275.8242,51.4972 C275.9052,51.4852 275.9622,51.4912 275.9912,51.4662 C276.0152,51.4442 276.0052,51.3852 276.0112,51.3422" id="Fill-128" fill="#221F20" mask="url(#mask-8)"></path>
            <path d="M273.2554,58.2905 C273.2514,58.2105 273.2674,58.1475 273.2434,58.1265 C273.2184,58.1035 273.1494,58.1015 273.1144,58.1195 C273.0934,58.1305 273.0824,58.2115 273.1004,58.2345 C273.1224,58.2645 273.1794,58.2665 273.2554,58.2905" id="Fill-129" fill="#221F20" mask="url(#mask-8)"></path>
            <path d="M271.1616,56.7631 C271.1946,56.7861 271.2616,56.7931 271.2946,56.7751 C271.3186,56.7601 271.3356,56.6741 271.3176,56.6561 C271.2906,56.6271 271.2316,56.6301 271.1616,56.6141 C271.1596,56.6831 271.1416,56.7501 271.1616,56.7631" id="Fill-130" fill="#221F20" mask="url(#mask-8)"></path>
            <path d="M279.3765,55.2983 C279.3975,55.2723 279.3975,55.1923 279.3785,55.1783 C279.3455,55.1553 279.2785,55.1503 279.2435,55.1683 C279.2095,55.1873 279.1965,55.2453 279.1735,55.2863 C279.2015,55.2943 279.2295,55.3033 279.2565,55.3113 C279.2985,55.3083 279.3585,55.3193 279.3765,55.2983" id="Fill-131" fill="#221F20" mask="url(#mask-8)"></path>
            <path d="M277.2222,53.4379 C277.2142,53.3669 277.2242,53.3119 277.2022,53.2919 C277.1782,53.2709 277.1092,53.2649 277.0882,53.2849 C277.0662,53.3059 277.0602,53.3739 277.0772,53.4009 C277.0932,53.4249 277.1522,53.4219 277.2222,53.4379" id="Fill-132" fill="#221F20" mask="url(#mask-8)"></path>
            <path d="M326.7095,88.3412 C326.7315,88.4442 326.7925,88.4792 326.8975,88.4232 C326.9705,88.3852 327.0505,88.3552 327.1305,88.3422 C327.4165,88.2982 327.4625,88.0702 327.5305,87.8502 C327.5855,87.6772 327.4645,87.5902 327.3625,87.5072 C327.2125,87.3832 327.0245,87.3632 326.8535,87.4432 C326.6885,87.5172 326.6705,87.6892 326.6635,87.8512 C326.6615,87.9142 326.6715,87.9782 326.6755,88.0412 L326.6685,88.0422 C326.6815,88.1422 326.6875,88.2432 326.7095,88.3412" id="Fill-133" fill="#221F20" mask="url(#mask-8)"></path>
            <path d="M325.2729,87.7905 C325.4009,87.6575 325.3769,87.4085 325.2549,87.3005 C325.1189,87.1815 324.9219,87.2015 324.7729,87.3535 C324.6489,87.4785 324.5699,87.6225 324.5889,87.7705 C324.5989,88.0125 324.7299,88.1195 324.9179,88.0405 C325.0479,87.9855 325.1739,87.8945 325.2729,87.7905" id="Fill-134" fill="#221F20" mask="url(#mask-8)"></path>
            <path d="M325.7554,89.5678 C325.7614,89.6978 325.8704,89.8058 325.9894,89.7998 C326.1104,89.7948 326.2064,89.6788 326.1984,89.5468 C326.1914,89.4098 326.0894,89.3068 325.9674,89.3118 C325.8474,89.3178 325.7494,89.4348 325.7554,89.5678" id="Fill-135" fill="#221F20" mask="url(#mask-8)"></path>
            <path d="M321.6099,90.5209 C321.6169,90.6419 321.7159,90.7419 321.8219,90.7339 C321.9309,90.7269 322.0129,90.6219 322.0059,90.4969 C321.9979,90.3679 321.8919,90.2589 321.7849,90.2699 C321.6859,90.2809 321.6019,90.4009 321.6099,90.5209" id="Fill-136" fill="#221F20" mask="url(#mask-8)"></path>
            <path d="M324.4868,89.434 C324.5058,89.539 324.5678,89.607 324.6888,89.603 C324.7958,89.599 324.8838,89.488 324.8638,89.38 C324.8418,89.272 324.7768,89.198 324.6588,89.198 C324.5568,89.199 324.4758,89.312 324.4868,89.434" id="Fill-137" fill="#221F20" mask="url(#mask-8)"></path>
            <path d="M322.8315,89.4701 C322.8405,89.5741 322.8795,89.6631 323.0015,89.6571 C323.1315,89.6501 323.1605,89.5551 323.1575,89.4451 C323.1425,89.3311 323.0925,89.2401 322.9705,89.2541 C322.8585,89.2681 322.8225,89.3661 322.8315,89.4701" id="Fill-138" fill="#221F20" mask="url(#mask-8)"></path>
            <path d="M326.6108,90.3998 C326.6248,90.3788 326.6658,90.3418 326.6688,90.3028 C326.6758,90.1978 326.5248,90.0548 326.4148,90.0708 C326.3758,90.0768 326.3188,90.1358 326.3148,90.1748 C326.3038,90.2758 326.4698,90.4088 326.6108,90.3998" id="Fill-139" fill="#221F20" mask="url(#mask-8)"></path>
            <path d="M326.4253,87.6557 C326.3613,87.7167 326.3043,87.7627 326.2553,87.8177 C326.2363,87.8427 326.2193,87.8897 326.2303,87.9137 C326.2413,87.9387 326.2853,87.9597 326.3183,87.9627 C326.4783,87.9787 326.5183,87.8767 326.4253,87.6557" id="Fill-140" fill="#221F20" mask="url(#mask-8)"></path>
            <path d="M323.5063,91.144 C323.5463,91.168 323.5873,91.208 323.6283,91.209 C323.6583,91.211 323.6913,91.162 323.7453,91.114 C323.6773,91.076 323.6293,91.028 323.5953,91.036 C323.5593,91.044 323.5343,91.106 323.5063,91.144" id="Fill-141" fill="#221F20" mask="url(#mask-8)"></path>
        </g>
    </g>
</svg>